<svg xmlns="http://www.w3.org/2000/svg" width="99" height="76" viewBox="0 0 99 76">
  <metadata><?xpacket begin="﻿" id="W5M0MpCehiHzreSzNTczkc9d"?>
<x:xmpmeta xmlns:x="adobe:ns:meta/" x:xmptk="Adobe XMP Core 5.6-c138 79.159824, 2016/09/14-01:09:01        ">
   <rdf:RDF xmlns:rdf="http://www.w3.org/1999/02/22-rdf-syntax-ns#">
      <rdf:Description rdf:about=""/>
   </rdf:RDF>
</x:xmpmeta>
                                                                                                    
                                                                                                    
                                                                                                    
                                                                                                    
                                                                                                    
                                                                                                    
                                                                                                    
                                                                                                    
                                                                                                    
                                                                                                    
                                                                                                    
                                                                                                    
                                                                                                    
                                                                                                    
                                                                                                    
                                                                                                    
                                                                                                    
                                                                                                    
                                                                                                    
                                                                                                    
                           
<?xpacket end="w"?></metadata>
<defs>
    <style>
      .cls-1 {
        fill: #fff;
        fill-rule: evenodd;
      }
    </style>
  </defs>
  <path id="Forma_1" data-name="Forma 1" class="cls-1" d="M1631,1193h38.8v-57.03H1631V1193Zm20.22-2.86a1.835,1.835,0,1,1,1.87-1.84A1.855,1.855,0,0,1,1651.22,1190.14Zm-14.61-48.67h27.58v42.07h-27.58v-42.07Zm13.58-19.11h62.17v24.72h5.48V1117h-73.13v16.54h5.48v-11.18Zm22.11,36.51h28.81v5.37H1672.3v-5.37Zm31.64-9.71v42.95H1730v-42.95h-26.06Zm13.61,1.78a0.625,0.625,0,0,1,.63.62,0.63,0.63,0,0,1-1.26,0A0.619,0.619,0,0,1,1717.55,1150.94Zm-3.75,2.06h7.5v0.59h-7.5V1153Zm3.5,37.25a1.475,1.475,0,1,1,1.51-1.47A1.492,1.492,0,0,1,1717.3,1190.25Zm8.52-5.06c-6.77.04-14.34,0.07-17.7,0.04V1155.7h17.7v29.49Zm-45.59-18.76h-7.93v3.26h19.31v1.42H1672.3v2.94h28.81v-7.62h-20.88Z" transform="translate(-1631 -1117)"/>
</svg>
