<svg xmlns="http://www.w3.org/2000/svg" width="60" height="96" viewBox="0 0 60 96">
  <metadata><?xpacket begin="﻿" id="W5M0MpCehiHzreSzNTczkc9d"?>
<x:xmpmeta xmlns:x="adobe:ns:meta/" x:xmptk="Adobe XMP Core 5.6-c138 79.159824, 2016/09/14-01:09:01        ">
   <rdf:RDF xmlns:rdf="http://www.w3.org/1999/02/22-rdf-syntax-ns#">
      <rdf:Description rdf:about=""/>
   </rdf:RDF>
</x:xmpmeta>
                                                                                                    
                                                                                                    
                                                                                                    
                                                                                                    
                                                                                                    
                                                                                                    
                                                                                                    
                                                                                                    
                                                                                                    
                                                                                                    
                                                                                                    
                                                                                                    
                                                                                                    
                                                                                                    
                                                                                                    
                                                                                                    
                                                                                                    
                                                                                                    
                                                                                                    
                                                                                                    
                           
<?xpacket end="w"?></metadata>
<defs>
    <style>
      .cls-1 {
        fill: #18cfab;
        fill-rule: evenodd;
      }
    </style>
  </defs>
  <path id="Forma_1" data-name="Forma 1" class="cls-1" d="M1218,1182a3,3,0,0,1-3,3h-30a3,3,0,0,1,0-6h30A3,3,0,0,1,1218,1182Zm-3,6h-30a3,3,0,0,0,0,6h30A3,3,0,0,0,1215,1188Zm-21,15h12a6,6,0,0,0,6-6h-24A6,6,0,0,0,1194,1203Zm36-66c0,16.31-9.83,18.21-11.68,36a3,3,0,0,1-3,3h-30.64a3,3,0,0,1-3-3h-0.01c-1.84-17.79-11.67-19.69-11.67-36A30,30,0,0,1,1230,1137Zm-17.85-9c-34.88,8.25-18,30-18,30,0-12,8.81-14.82,9-14.44-6.19,6-9,26.44-9,26.44h6v-12C1217.21,1158.93,1212.15,1130.06,1212.15,1128Z" transform="translate(-1170 -1107)"/>
</svg>
